<svg width="55" height="55" viewBox="0 0 55 55" fill="none" xmlns="http://www.w3.org/2000/svg">
<path d="M37.8737 18.7164C37.8736 18.2869 37.703 17.8751 37.3993 17.5714C37.0956 17.2677 36.6838 17.0971 36.2543 17.097L23.2973 17.097C23.0822 17.0933 22.8686 17.1324 22.6689 17.2121C22.4691 17.2918 22.2873 17.4105 22.1339 17.5613C21.9805 17.712 21.8587 17.8918 21.7755 18.0901C21.6924 18.2884 21.6495 18.5013 21.6495 18.7164C21.6495 18.9314 21.6924 19.1443 21.7755 19.3427C21.8587 19.541 21.9805 19.7208 22.1339 19.8715C22.2873 20.0223 22.4691 20.1409 22.6689 20.2206C22.8686 20.3003 23.0822 20.3395 23.2973 20.3357L32.3445 20.3357L17.1783 35.5019C16.8746 35.8056 16.704 36.2176 16.704 36.6471C16.704 37.0767 16.8746 37.4886 17.1783 37.7924C17.4821 38.0961 17.894 38.2667 18.3236 38.2667C18.7531 38.2667 19.1651 38.0961 19.4688 37.7924L34.635 22.6262L34.635 31.6734C34.6424 32.098 34.8162 32.5028 35.1191 32.8004C35.422 33.0981 35.8296 33.2649 36.2543 33.2649C36.679 33.2649 37.0867 33.0981 37.3895 32.8004C37.6924 32.5028 37.8663 32.098 37.8737 31.6734L37.8737 18.7164Z" fill="#FEFEFE"/>
</svg>
