<svg width="257" height="70" viewBox="0 0 257 70" fill="none" xmlns="http://www.w3.org/2000/svg">
<g clip-path="url(#clip0_65_1676)">
<rect width="257" height="70" rx="35" fill="#EECF8B"/>
<path d="M130 -11C137 -7.5 158.5 15 152.5 28C146.5 41 138.5 52.5 145.5 69.5C151.1 83.1 170.5 88.8333 179.5 90L185.5 59.5C177.167 56.3333 162.5 47.5 170.5 37.5C178.5 27.5 173.833 13.3333 170.5 7.5L145.5 -11H130Z" fill="#171717"/>
<path d="M201 -2.50002C197.167 10.1666 194.6 36.2 215 39C240.5 42.5 210.5 62.5 224 74.5C234.8 84.1 247.5 71.8333 252.5 64.5C254.667 58 255.5 43.8 241.5 39C224 33 218 12 226.5 -2.86102e-05C233.3 -9.60003 212.333 -5.66669 201 -2.50002Z" fill="#171717"/>
<path d="M86.0001 -2.5C92.0001 0.166667 102.2 11.2 95.0001 34C87.8001 56.8 92.0001 78.5 95.0001 86.5H122.5C115.667 80.1667 103.6 65.2 110 56C118 44.5 135 39.5 122.5 28C112.5 18.8 103 0.500003 99.5001 -7.5L86.0001 -2.5Z" fill="#171717"/>
<path d="M27.4999 -7.5C35.8333 3.83334 47.4999 38.5 27.4999 86.5C7.49995 134.5 37.8333 111.833 55.5 94.5C51.6666 85.8333 46.2999 66 55.5 56C67 43.5 60.4999 39 55.5 28C50.5 17 63 -4 63 -7.5C63 -10.3 39.3333 -8.66666 27.4999 -7.5Z" fill="#171717"/>
</g>
<defs>
<clipPath id="clip0_65_1676">
<rect width="257" height="70" fill="white"/>
</clipPath>
</defs>
</svg>
