<svg width="50" height="50" viewBox="0 0 50 50" fill="none" xmlns="http://www.w3.org/2000/svg">
<path d="M17.5817 32.6712C17.5541 32.6428 17.5266 32.6143 17.499 32.5858C16.3682 31.4138 15.3128 30.2203 14.3382 29.0202C14.2124 28.8051 14.0813 28.625 13.9581 28.4849C14.3089 28.005 14.8738 27.363 15.524 26.8446C15.7394 27.133 15.9538 27.4136 16.1592 27.6768C17.1401 28.4464 18.9031 29.4382 20.6796 29.5903C19.8607 30.4043 19.0948 31.1699 18.5129 31.7534L17.5817 32.6712Z" fill="white"/>
<path fill-rule="evenodd" clip-rule="evenodd" d="M34.476 23.1554C36.295 25.5921 38.1755 28.5916 35.1432 26.4542C33.6914 25.1076 31.8975 23.8509 30.4517 23.5816C30.4114 23.5741 30.3714 23.5668 30.3317 23.5598C30.7887 23.5173 31.2196 23.6032 31.6235 23.8384C32.51 24.3547 33.575 23.8737 34.476 23.1554Z" fill="white"/>
<path fill-rule="evenodd" clip-rule="evenodd" d="M31.6235 23.8384C32.51 24.3547 33.575 23.8737 34.476 23.1554C36.295 25.5921 38.1755 28.5916 35.1432 26.4542C35.8695 27.1278 36.5101 27.8239 36.9789 28.4301C37.1705 28.678 37.3286 28.8826 37.4586 29.0513C39.9849 32.2123 41.5329 35.2693 41.8282 37.6974C42.1395 40.2579 41.036 41.9416 38.7262 42.4304C36.4164 42.9192 33.0603 42.1792 29.2917 40.3502C25.5991 38.5581 21.7612 35.8421 18.4745 32.6982L17.9999 32.2685C18.1475 32.12 18.3201 31.9467 18.5129 31.7534L20.7053 29.5924L24.8345 25.5226C25.0697 25.3029 25.2917 25.1019 25.5042 24.919C27.1211 23.5268 28.187 23.1795 30.3317 23.5598C30.7887 23.5173 31.2196 23.6032 31.6235 23.8384ZM17.5817 32.6712L18.5129 31.7534C19.0948 31.1699 19.8607 30.4043 20.6796 29.5903C18.9031 29.4382 17.1401 28.4464 16.1592 27.6768C15.9538 27.4136 15.7394 27.133 15.524 26.8446C14.8738 27.363 14.3089 28.005 13.9581 28.4849C14.0813 28.625 14.2124 28.8051 14.3382 29.0202C7.22174 20.2568 4.41971 11.1429 8.12156 7.52881C12.2857 3.46333 23.1196 7.88035 32.4413 17.3977L50 0C46.1172 4.00673 37.8896 12.7071 36.0419 15.4545C34.4924 17.7586 35.0003 19.8448 35.6587 20.9745C42.9537 29.828 45.8616 39.1076 42.118 42.7625C37.9215 46.8595 26.9515 42.3419 17.5817 32.6712ZM17.5817 32.6712C17.5541 32.6428 17.5266 32.6143 17.499 32.5858C16.3682 31.4138 15.3128 30.2203 14.3382 29.0202C14.998 30.1486 15.51 32.2378 13.9581 34.5455C12.1104 37.2929 3.88282 45.9933 0 50L17.5817 32.6712ZM17.9054 25.98C18.4529 26.2665 18.9873 26.4737 19.4811 26.5657C22.1924 27.0707 23.1965 26.4646 25.6066 24.1414C26.1456 23.6218 26.7783 23.0032 27.438 22.3536C27.5477 22.2535 27.6406 22.1616 27.7153 22.0803L29.3876 20.4234L29.3945 20.4165C30.429 19.3876 31.3655 18.4496 31.9329 17.8788L31.4588 17.4496C28.172 14.3055 24.3339 11.5892 20.6411 9.79702C16.8725 7.96806 13.5164 7.22807 11.2066 7.71684C8.89677 8.20562 7.79331 9.88932 8.10464 12.4499C8.39985 14.8777 9.94763 17.9344 12.4735 21.0951C12.6037 21.2639 12.7619 21.4689 12.9539 21.7172C13.2874 22.1485 13.7079 22.6253 14.1844 23.1071C15.2591 24.1939 16.6185 25.3064 17.9054 25.98Z" fill="white"/>
</svg>
