<svg width="40" height="40" viewBox="0 0 40 40" fill="none" xmlns="http://www.w3.org/2000/svg">
<g clip-path="url(#clip0_15_402)">
<path d="M37.2096 36.0781C38.1645 35.1232 38.9011 33.9686 39.3773 32.6804C39.8535 31.3921 40.06 29.9954 39.985 28.5699C39.91 27.1444 39.5549 25.7181 38.9401 24.3724C38.3252 23.0267 37.4627 21.788 36.4017 20.727C35.3406 19.666 34.1019 18.8034 32.7562 18.1886C31.4105 17.5738 29.9842 17.2188 28.5587 17.1437C27.1332 17.0687 25.7365 17.2752 24.4482 17.7514C23.16 18.2276 22.0054 18.9641 21.0505 19.9191L37.2096 36.0781Z" fill="#171717"/>
<path d="M2.79039 3.92132C1.83546 4.87624 1.09887 6.03079 0.622677 7.31905C0.14648 8.60731 -0.0600007 10.004 0.0150244 11.4295C0.0900495 12.855 0.445111 14.2813 1.05994 15.627C1.67476 16.9727 2.53731 18.2114 3.59834 19.2724C4.65936 20.3334 5.89808 21.196 7.24377 21.8108C8.58946 22.4256 10.0158 22.7807 11.4413 22.8557C12.8668 22.9307 14.2635 22.7242 15.5518 22.248C16.84 21.7718 17.9946 21.0353 18.9495 20.0803L2.79039 3.92132Z" fill="#171717"/>
<path d="M3.92153 37.2092C4.87645 38.1642 6.03101 38.9007 7.31928 39.3769C8.60755 39.8531 10.0043 40.0596 11.4298 39.9846C12.8553 39.9096 14.2816 39.5545 15.6273 38.9397C16.973 38.3248 18.2117 37.4623 19.2727 36.4013C20.3337 35.3403 21.1963 34.1016 21.8111 32.7559C22.426 31.4102 22.781 29.9839 22.856 28.5584C22.9311 27.1329 22.7246 25.7362 22.2484 24.4479C21.7722 23.1597 21.0356 22.0051 20.0807 21.0502L3.92153 37.2092Z" fill="#171717"/>
<path d="M36.0781 2.79036C35.1231 1.83544 33.9686 1.09886 32.6803 0.62267C31.3921 0.146477 29.9953 -0.0600008 28.5698 0.0150247C27.1443 0.0900503 25.718 0.44511 24.3723 1.05993C23.0266 1.67475 21.7879 2.5373 20.7269 3.59831C19.6659 4.65933 18.8033 5.89804 18.1885 7.24372C17.5737 8.5894 17.2186 10.0157 17.1436 11.4412C17.0685 12.8667 17.275 14.2634 17.7512 15.5517C18.2274 16.8399 18.964 17.9945 19.9189 18.9494L36.0781 2.79036Z" fill="#171717"/>
</g>
<defs>
<clipPath id="clip0_15_402">
<rect width="40" height="40" fill="white"/>
</clipPath>
</defs>
</svg>
