<svg width="69" height="69" viewBox="0 0 69 69" fill="none" xmlns="http://www.w3.org/2000/svg">
<path d="M5.3596 64.9569C19.3852 54.3762 26.3979 49.0859 34.5001 49.0859C42.6023 49.0859 49.6151 54.3762 63.6406 64.9569L68.9999 68.9998L64.9569 63.6406C54.3762 49.615 49.0859 42.6022 49.0859 34.5001C49.0859 26.3979 54.3762 19.3852 64.9569 5.35962L69 0.000161179L63.6406 4.04321C49.615 14.6239 42.6023 19.9142 34.5001 19.9142C26.3979 19.9142 19.3852 14.6239 5.3596 4.04321L0 0L4.04321 5.3596C14.6239 19.3852 19.9142 26.3979 19.9142 34.5001C19.9142 42.6022 14.6239 49.615 4.04322 63.6406L0.000135799 69L5.3596 64.9569Z" fill="#EECF8B"/>
</svg>
