<svg width="139" height="67" viewBox="0 0 139 67" fill="none" xmlns="http://www.w3.org/2000/svg">
<g clip-path="url(#clip0_60_1620)">
<rect width="139" height="67" rx="33.5" fill="#EECF8B"/>
<path d="M-1.5 12.5C4.66667 17.3333 15.8 32.4 11 54C6.2 75.6 -3.33333 52.6667 -7.5 38.5L-1.5 12.5Z" fill="#171717" fill-opacity="0.25"/>
<path d="M27.5 -14C33.5 -5.16667 43.7 16.6 36.5 33C27.5 53.5 30.5 79.5 35 83C38.6 85.8 47.8333 81.1667 52 78.5C49 72.3333 43.9 58.8 47.5 54C52 48 64.5 17.5 56 11C49.2 5.8 44.5 -5.83333 43 -11L27.5 -14Z" fill="#171717" fill-opacity="0.3"/>
<path d="M75 -7.5C78.6667 -3.66667 85.2 8.4 82 26C78 48 82 83 94.5 85C104.5 86.6 121.667 81.3333 129 78.5C121 74.3333 106.1 61.4 110.5 43C116 20 116.5 -4 104 -7.5C94 -10.3 80.5 -8.66667 75 -7.5Z" fill="#171717" fill-opacity="0.4"/>
</g>
<defs>
<clipPath id="clip0_60_1620">
<rect width="139" height="67" fill="white"/>
</clipPath>
</defs>
</svg>
