<svg width="65" height="65" viewBox="0 0 65 65" fill="none" xmlns="http://www.w3.org/2000/svg">
<path d="M30.7392 10.8649C30.7392 4.6555 30.7392 1.55081 28.8022 0.386551C26.8652 -0.777705 24.2825 0.774638 19.1171 3.87932L15.383 6.12373C10.2177 9.22842 7.63497 10.7808 7.63497 13.1093C7.63497 15.4378 10.2177 16.9901 15.383 20.0948L19.1171 22.3392C24.2825 25.4439 26.8652 26.9963 28.8022 25.832C30.7392 24.6677 30.7392 21.5631 30.7392 15.3537V10.8649Z" fill="#EECF8B"/>
<path d="M13.6221 23.27C8.4567 20.1654 5.87402 18.613 3.93701 19.7773C2 20.9415 2 24.0462 2 30.2556V34.7444C2 40.9538 2 44.0585 3.93701 45.2227C5.87402 46.387 8.4567 44.8346 13.6221 41.7299L17.3562 39.4855C22.5215 36.3808 25.1042 34.8285 25.1042 32.5C25.1042 30.1715 22.5215 28.6191 17.3562 25.5145L13.6221 23.27Z" fill="#EECF8B"/>
<path d="M15.383 44.9052C10.2176 48.0099 7.63496 49.5622 7.63496 51.8907C7.63496 54.2192 10.2176 55.7716 15.383 58.8763L19.1171 61.1207C24.2825 64.2254 26.8652 65.7777 28.8022 64.6134C30.7392 63.4492 30.7392 60.3445 30.7392 54.1351V49.6463C30.7392 43.4369 30.7392 40.3322 28.8022 39.168C26.8652 38.0037 24.2825 39.5561 19.1171 42.6608L15.383 44.9052Z" fill="#EECF8B"/>
<path d="M34.261 54.135C34.261 60.3444 34.261 63.4491 36.198 64.6133C38.135 65.7776 40.7177 64.2253 45.8831 61.1206L49.6171 58.8762C54.7824 55.7715 57.3651 54.2192 57.3651 51.8907C57.3651 49.5622 54.7824 48.0098 49.6171 44.9051L45.8831 42.6608C40.7177 39.5561 38.135 38.0038 36.198 39.168C34.261 40.3323 34.261 43.437 34.261 49.6463V54.135Z" fill="#EECF8B"/>
<path d="M51.3779 41.7299C56.5433 44.8346 59.126 46.3869 61.063 45.2227C63 44.0584 63 40.9537 63 34.7443V30.2557C63 24.0463 63 20.9416 61.063 19.7773C59.126 18.6131 56.5433 20.1654 51.3779 23.2701L47.644 25.5145C42.4786 28.6191 39.8959 30.1715 39.8959 32.5C39.8959 34.8285 42.4786 36.3808 47.644 39.4855L51.3779 41.7299Z" fill="#EECF8B"/>
<path d="M49.6171 20.0948C54.7824 16.9902 57.3651 15.4378 57.3651 13.1093C57.3651 10.7808 54.7824 9.22846 49.6171 6.12378L45.8831 3.87943C40.7177 0.774747 38.135 -0.777595 36.198 0.386661C34.261 1.55092 34.261 4.6556 34.261 10.865V15.3537C34.261 21.563 34.261 24.6677 36.198 25.832C38.135 26.9962 40.7177 25.4439 45.8831 22.3392L49.6171 20.0948Z" fill="#EECF8B"/>
</svg>
