<svg width="65" height="65" viewBox="0 0 65 65" fill="none" xmlns="http://www.w3.org/2000/svg">
<g clip-path="url(#clip0_15_287)">
<path d="M29.861 30.5151C27.0554 29.1826 22.1355 28.0465 16.1976 27.7741C6.83259 27.3445 -1.52706e-06 30.0648 -1.40355e-06 32.8906C-1.32321e-06 34.7284 3.06782 36.34 7.67415 37.2421C5.91233 36.5007 4.94066 35.557 4.94066 34.4333C4.94066 31.9419 13.3183 27.1297 25.7774 29.7075C27.2638 30.015 28.6219 30.281 29.861 30.5151Z" fill="#EECF8B"/>
<path d="M35.139 34.4849C37.9446 35.8174 42.8645 36.9534 48.8024 37.2258C58.1674 37.6555 65 34.9351 65 32.1094C65 30.2716 61.9322 28.66 57.3259 27.7579C59.0877 28.4993 60.0593 29.443 60.0593 30.5667C60.0593 33.0581 51.6817 37.8703 39.2226 35.2925C37.7362 34.985 36.3781 34.719 35.139 34.4849Z" fill="#EECF8B"/>
<path d="M34.4849 29.861C35.8174 27.0554 36.9535 22.1355 37.2259 16.1976C37.6555 6.83258 34.9352 -9.15646e-06 32.1094 -9.03294e-06C30.2716 -8.95261e-06 28.66 3.06781 27.7579 7.67414C28.4993 5.91232 29.443 4.94065 30.5667 4.94065C33.0581 4.94065 37.8703 13.3183 35.2925 25.7774C34.985 27.2638 34.719 28.6219 34.4849 29.861Z" fill="#EECF8B"/>
<path d="M30.5151 35.139C29.1826 37.9446 28.0466 42.8644 27.7742 48.8024C27.3445 58.1674 30.0648 65 32.8906 65C34.7284 65 36.34 61.9322 37.2421 57.3259C36.5007 59.0877 35.557 60.0593 34.4333 60.0593C31.9419 60.0593 27.1297 51.6817 29.7075 39.2226C30.015 37.7361 30.281 36.3781 30.5151 35.139Z" fill="#EECF8B"/>
<path d="M32.0374 29.2304C30.9958 26.3043 28.3202 22.0221 24.3141 17.6308C17.9958 10.7049 11.2409 7.7971 9.24279 9.79519C7.94321 11.0948 8.97295 14.4036 11.5922 18.2987C10.8707 16.5286 10.8509 15.1742 11.6455 14.3796C13.4072 12.618 22.7338 15.1391 29.7209 25.7718C30.5546 27.0403 31.3268 28.1887 32.0374 29.2304Z" fill="#EECF8B"/>
<path d="M32.9625 35.7696C34.0041 38.6957 36.6796 42.9778 40.6858 47.3692C47.0041 54.2951 53.759 57.2029 55.7571 55.2048C57.0567 53.9052 56.0269 50.5964 53.4077 46.7013C54.1292 48.4714 54.1489 49.8258 53.3544 50.6204C51.5927 52.382 42.2661 49.8609 35.2789 39.2282C34.4453 37.9597 33.6731 36.8113 32.9625 35.7696Z" fill="#EECF8B"/>
<path d="M35.7695 32.0374C38.6956 30.9959 42.9778 28.3203 47.3692 24.3141C54.295 17.9959 57.2028 11.2409 55.2047 9.24285C53.9052 7.94327 50.5963 8.97301 46.7013 11.5923C48.4713 10.8707 49.8257 10.851 50.6203 11.6456C52.382 13.4072 49.8608 22.7339 39.2282 29.721C37.9596 30.5546 36.8113 31.3268 35.7695 32.0374Z" fill="#EECF8B"/>
<path d="M29.2304 32.9625C26.3042 34.0041 22.0221 36.6797 17.6307 40.6859C10.7049 47.0041 7.79704 53.7591 9.79513 55.7571C11.0947 57.0567 14.4035 56.027 18.2986 53.4077C16.5286 54.1293 15.1741 54.149 14.3796 53.3544C12.6179 51.5927 15.1391 42.2661 25.7717 35.279C27.0403 34.4454 28.1886 33.6731 29.2304 32.9625Z" fill="#EECF8B"/>
<path d="M29.3023 31.6761C26.2003 31.5186 21.2203 32.3519 15.63 34.3725C6.81352 37.5595 1.54205 42.6874 2.6234 45.298C3.32673 46.996 6.77774 47.3109 11.3787 46.3816C9.46723 46.3709 8.20837 45.8708 7.77835 44.8326C6.82494 42.5309 12.7233 34.879 25.2205 32.4927C26.7115 32.208 28.0679 31.934 29.3023 31.6761Z" fill="#EECF8B"/>
<path d="M35.6977 33.3239C38.7997 33.4814 43.7798 32.6481 49.37 30.6275C58.1865 27.4405 63.458 22.3126 62.3767 19.702C61.6733 18.004 58.2223 17.6891 53.6214 18.6184C55.5328 18.6291 56.7917 19.1292 57.2217 20.1674C58.1751 22.4691 52.2767 30.121 39.7796 32.5073C38.2886 32.792 36.9321 33.066 35.6977 33.3239Z" fill="#EECF8B"/>
<path d="M33.3239 29.3023C33.4814 26.2003 32.6482 21.2202 30.6275 15.63C27.4406 6.81349 22.3126 1.54202 19.702 2.62337C18.004 3.3267 17.6891 6.77771 18.6184 11.3786C18.6292 9.4672 19.1292 8.20834 20.1674 7.77832C22.4692 6.82491 30.121 12.7233 32.5074 25.2205C32.7921 26.7115 33.066 28.0679 33.3239 29.3023Z" fill="#EECF8B"/>
<path d="M31.6762 35.6977C31.5187 38.7997 32.3519 43.7798 34.3726 49.37C37.5595 58.1865 42.6875 63.458 45.2981 62.3766C46.9961 61.6733 47.3109 58.2223 46.3816 53.6214C46.3709 55.5328 45.8708 56.7917 44.8326 57.2217C42.5309 58.1751 34.8791 52.2767 32.4927 39.7795C32.208 38.2885 31.934 36.9321 31.6762 35.6977Z" fill="#EECF8B"/>
<path d="M30.8214 29.6563C28.7393 27.3515 24.6287 24.4192 19.247 21.8952C10.7593 17.9145 3.40575 17.813 2.3244 20.4236C1.62107 22.1216 3.83865 24.7845 7.74911 27.3807C6.40512 26.0215 5.86858 24.7778 6.29861 23.7396C7.25202 21.4379 16.8335 20.198 27.3577 27.3474C28.6133 28.2004 29.7662 28.9658 30.8214 29.6563Z" fill="#EECF8B"/>
<path d="M34.1785 35.3437C36.2606 37.6485 40.3712 40.5808 45.7529 43.1048C54.2406 47.0855 61.5941 47.187 62.6755 44.5764C63.3788 42.8784 61.1612 40.2155 57.2508 37.6193C58.5948 38.9785 59.1313 40.2222 58.7013 41.2604C57.7479 43.5621 48.1664 44.802 37.6422 37.6526C36.3866 36.7996 35.2337 36.0342 34.1785 35.3437Z" fill="#EECF8B"/>
<path d="M35.3436 30.8214C37.6484 28.7394 40.5807 24.6287 43.1047 19.247C47.0855 10.7593 47.1869 3.4058 44.5763 2.32445C42.8783 1.62112 40.2155 3.8387 37.6192 7.74916C38.9784 6.40517 40.2222 5.86864 41.2603 6.29866C43.5621 7.25207 44.8019 16.8335 37.6525 27.3578C36.7996 28.6134 36.0341 29.7663 35.3436 30.8214Z" fill="#EECF8B"/>
<path d="M29.6563 34.1786C27.3515 36.2606 24.4192 40.3712 21.8952 45.753C17.9144 54.2407 17.8129 61.5942 20.4236 62.6755C22.1215 63.3789 24.7844 61.1613 27.3807 57.2508C26.0215 58.5948 24.7777 59.1314 23.7396 58.7013C21.4378 57.7479 20.1979 48.1664 27.3473 37.6422C28.2003 36.3866 28.9657 35.2337 29.6563 34.1786Z" fill="#EECF8B"/>
</g>
<defs>
<clipPath id="clip0_15_287">
<rect width="65" height="65" fill="white"/>
</clipPath>
</defs>
</svg>
