<svg width="89" height="89" viewBox="0 0 89 89" fill="none" xmlns="http://www.w3.org/2000/svg">
<path d="M89 44.5C89 69.0767 69.0767 89 44.5 89C61.2121 89 74.76 75.4521 74.76 58.74C74.76 42.0279 61.2121 28.48 44.5 28.48C27.7879 28.48 14.24 42.0279 14.24 58.74C14.24 75.4521 27.7879 89 44.5 89C19.9233 89 0 69.0767 0 44.5C0 19.9233 19.9233 0 44.5 0C69.0767 0 89 19.9233 89 44.5Z" fill="#EECF8B"/>
<path d="M44.5 89C32.7032 89 23.14 79.4368 23.14 67.64C23.14 55.8432 32.7032 46.28 44.5 46.28C56.2968 46.28 65.86 55.8432 65.86 67.64C65.86 79.4368 56.2968 89 44.5 89Z" fill="#EECF8B"/>
</svg>
