<svg width="161" height="161" viewBox="0 0 161 161" fill="none" xmlns="http://www.w3.org/2000/svg">
<g clip-path="url(#clip0_14_80)">
<path d="M80.5 0C76.1481 0 72.7082 3.68904 73.0121 8.03035L77.5939 73.484L34.5509 23.9615C31.6961 20.6768 26.6552 20.5006 23.5779 23.5779C20.5006 26.6552 20.6768 31.6961 23.9615 34.5509L73.484 77.5939L8.03035 73.0121C3.68904 72.7082 1.62632e-06 76.1481 0 80.5C0 84.8519 3.68904 88.2918 8.03035 87.9879L73.484 83.4061L23.9615 126.449C20.6768 129.304 20.5006 134.345 23.5779 137.422C26.6552 140.499 31.6961 140.323 34.5509 137.038L77.5939 87.516L73.0121 152.97C72.7082 157.311 76.1481 161 80.5 161C84.8519 161 88.2918 157.311 87.9879 152.97L83.4061 87.516L126.449 137.039C129.304 140.323 134.345 140.499 137.422 137.422C140.499 134.345 140.323 129.304 137.038 126.449L87.516 83.4061L152.97 87.9879C157.311 88.2918 161 84.8519 161 80.5C161 76.1481 157.311 72.7082 152.97 73.0121L87.516 77.5939L137.039 34.5509C140.323 31.6961 140.499 26.6552 137.422 23.5779C134.345 20.5006 129.304 20.6768 126.449 23.9615L83.4061 73.484L87.9879 8.03035C88.2918 3.68904 84.8519 0 80.5 0Z" fill="#EECF8B"/>
</g>
<defs>
<clipPath id="clip0_14_80">
<rect width="161" height="161" fill="white"/>
</clipPath>
</defs>
</svg>
